<svg xmlns="http://www.w3.org/2000/svg" xmlns:xlink="http://www.w3.org/1999/xlink" width="500" zoomAndPan="magnify" viewBox="0 0 375 374.999991" height="500" preserveAspectRatio="xMidYMid meet" version="1.0"><defs><clipPath id="e439f62e35"><path d="M 112 22.035156 L 330.601562 22.035156 L 330.601562 292 L 112 292 Z M 112 22.035156 " clip-rule="nonzero"/></clipPath><clipPath id="da5c97386c"><path d="M 45.601562 82 L 264 82 L 264 351.285156 L 45.601562 351.285156 Z M 45.601562 82 " clip-rule="nonzero"/></clipPath></defs><g clip-path="url(#e439f62e35)"><path fill="#ffffff" d="M 154.992188 85.460938 L 188.175781 66.292969 L 330.742188 148.609375 L 330.742188 104.390625 L 188.175781 22.070312 L 112.886719 65.546875 L 112.886719 111.65625 L 292.449219 215.296875 L 292.449219 291.136719 L 330.742188 269.027344 L 330.742188 186.945312 Z M 154.992188 85.460938 " fill-opacity="1" fill-rule="nonzero"/></g><g clip-path="url(#da5c97386c)"><path fill="#ffffff" d="M 221.363281 287.957031 L 188.175781 307.125 L 45.613281 224.804688 L 45.613281 269.027344 L 188.175781 351.347656 L 263.464844 307.867188 L 263.464844 261.761719 L 83.90625 158.117188 L 83.90625 82.277344 L 45.613281 104.390625 L 45.613281 186.472656 Z M 221.363281 287.957031 " fill-opacity="1" fill-rule="nonzero"/></g></svg>